<svg height="504pt" viewBox="0 0 504 504.04516" width="504pt" xmlns="http://www.w3.org/2000/svg"><path d="m494.253906 211.007812-33.84375-89.382812c-15.621094-40.785156-48.597656-72.027344-90.25-85.910156l-91.988281-28.636719c-41.652344-13.886719-87.644531-6.945313-124.09375 17.355469l-79.835937 53.800781c-2.605469 1.738281-6.074219 4.339844-8.679688 6.074219-32.105469 24.300781-52.066406 60.746094-55.539062 100.667968l-8.675782 96.324219c-3.472656 43.390625 12.148438 85.910157 44.257813 116.285157l70.289062 65.953124c32.109375 30.371094 75.5 44.257813 118.890625 37.3125l95.457032-13.882812c37.316406-5.207031 71.160156-25.167969 94.589843-55.539062 3.46875-4.339844 6.941407-9.546876 9.546875-14.753907l49.460938-83.308593c21.695312-35.578126 26.035156-81.570313 10.414062-122.359376zm0 0" fill="#7d6599"/><path d="m423.964844 433.164062c-23.433594 29.503907-57.277344 49.464844-94.589844 55.539063l-95.457031 13.886719c-43.390625 6.074218-86.78125-6.945313-118.890625-37.316406l-70.289063-65.953126c-31.242187-30.371093-47.730469-72.894531-44.257812-116.285156l8.675781-96.324218c3.472656-39.917969 24.300781-76.367188 55.539062-100.664063-16.488281 21.695313-26.902343 47.726563-29.503906 74.628906l-8.679687 96.328125c-3.46875 43.386719 12.148437 85.910156 44.257812 116.28125l70.292969 65.953125c32.109375 30.375 75.496094 44.257813 118.886719 37.316407l95.457031-13.886719c25.167969-4.335938 48.597656-13.882813 68.558594-29.503907zm0 0" fill="#3d324c"/><path d="m451.734375 199.726562c0 28.757813-23.3125 52.070313-52.070313 52.070313-28.753906 0-52.066406-23.3125-52.066406-52.070313 0-28.753906 23.3125-52.066406 52.066406-52.066406 28.757813 0 52.070313 23.3125 52.070313 52.066406zm0 0" fill="#7d6599"/><path d="m191.394531 173.695312c0 28.753907-23.3125 52.066407-52.066406 52.066407-28.757813 0-52.070313-23.3125-52.070313-52.066407 0-28.757812 23.3125-52.070312 52.070313-52.070312 28.753906 0 52.066406 23.3125 52.066406 52.070312zm0 0" fill="#7d6599"/><path d="m130.648438 321.21875c0 14.378906-11.65625 26.035156-26.035157 26.035156-14.378906 0-26.03125-11.65625-26.03125-26.035156s11.652344-26.035156 26.03125-26.035156c14.378907 0 26.035157 11.65625 26.035157 26.035156zm0 0" fill="#894b9d"/><path d="m304.207031 104.269531c0 14.378907-11.65625 26.035157-26.035156 26.035157-14.375 0-26.03125-11.65625-26.03125-26.035157 0-14.378906 11.65625-26.035156 26.03125-26.035156 14.378906 0 26.035156 11.65625 26.035156 26.035156zm0 0" fill="#894b9d"/><path d="m364.953125 347.253906c0 9.585938-7.769531 17.355469-17.355469 17.355469-9.585937 0-17.355468-7.769531-17.355468-17.355469 0-9.585937 7.769531-17.355468 17.355468-17.355468 9.585938 0 17.355469 7.769531 17.355469 17.355468zm0 0" fill="#894b9d"/><path d="m269.496094 269.152344c0 14.378906-11.65625 26.03125-26.035156 26.03125-14.378907 0-26.03125-11.652344-26.03125-26.03125s11.652343-26.035156 26.03125-26.035156c14.378906 0 26.035156 11.65625 26.035156 26.035156zm0 0" fill="#804169"/><path d="m242.59375 434.898438c0 14.378906-11.65625 26.035156-26.035156 26.035156-14.375 0-26.03125-11.65625-26.03125-26.035156 0-14.375 11.65625-26.03125 26.03125-26.03125 14.378906 0 26.035156 11.65625 26.035156 26.03125zm0 0" fill="#804169"/><g fill="#bdc3c7"><path d="m417.019531 321.21875c-4.335937 0-8.675781-3.472656-8.675781-8.675781 0-.871094 0-2.605469.867188-3.472657.867187-.867187.867187-1.734374 1.734374-2.605468 2.605469-2.601563 6.074219-3.46875 9.546876-1.734375 2.605468.867187 3.472656 2.605469 4.339843 4.339843.867188.867188.867188 2.601563.867188 3.472657 0 2.601562-.867188 4.335937-2.601563 6.074219-.871094.867187-1.738281 1.734374-2.605468 1.734374-.867188.867188-2.601563.867188-3.472657.867188zm0 0"/><path d="m260.816406 373.285156c-4.335937 0-8.675781-3.46875-8.675781-8.675781 0-.867187 0-2.605469.867187-3.472656.867188-.867188.867188-1.734375 1.734376-2.601563 2.605468-2.605468 6.074218-3.472656 9.546874-1.738281 2.601563.871094 3.472657 2.605469 4.339844 4.339844.867188.867187.867188 2.605469.867188 3.472656 0 2.601563-.867188 4.339844-2.605469 6.074219-.867187.867187-1.734375 1.734375-2.601563 1.734375-.867187.867187-2.601562.867187-3.472656.867187zm0 0"/><path d="m191.394531 364.609375c-4.339843 0-8.679687-3.472656-8.679687-8.679687 0-.867188 0-2.601563.867187-3.46875.871094-.867188.871094-1.738282 1.738281-2.605469 2.601563-2.601563 6.074219-3.46875 9.546876-1.734375.867187.867187 1.734374.867187 2.601562 1.734375.867188.867187 1.734375 1.738281 1.734375 2.605469.867187.867187.867187 2.601562.867187 3.46875 0 3.472656-1.734374 6.945312-5.203124 7.8125-.871094.867187-2.605469.867187-3.472657.867187zm0 0"/><path d="m269.496094 191.050781c-4.339844 0-8.679688-3.472656-8.679688-8.679687 0-.867188 0-2.601563.871094-3.472656.867188-.867188.867188-1.734376 1.734375-2.601563 2.601563-2.601563 6.074219-3.472656 9.546875-1.734375.867188.867188 1.734375.867188 2.601562 1.734375.867188.867187 1.734376 1.734375 1.734376 2.601563.867187.871093.867187 2.605468.867187 3.472656 0 3.472656-1.734375 6.941406-5.203125 7.8125-.871094.867187-2.605469.867187-3.472656.867187zm0 0"/></g></svg>